<?xml version="1.0" standalone="no"?>
<!DOCTYPE svg PUBLIC "-//W3C//DTD SVG 20010904//EN"
 "http://www.w3.org/TR/2001/REC-SVG-20010904/DTD/svg10.dtd">
<svg version="1.0" xmlns="http://www.w3.org/2000/svg"
 width="512.000000pt" height="512.000000pt" viewBox="0 0 512.000000 512.000000"
 preserveAspectRatio="xMidYMid meet">
<metadata>
Created by potrace 1.15, written by Peter Selinger 2001-2017
</metadata>
<g transform="translate(0.000000,512.000000) scale(0.100000,-0.100000)"
fill="#000000" stroke="none">
<path d="M983 4920 c-76 -17 -123 -75 -123 -153 0 -66 24 -112 73 -142 40 -23
44 -32 154 -292 l112 -268 -32 -25 c-107 -83 -202 -203 -244 -307 -15 -37 -38
-59 -151 -144 -89 -67 -132 -105 -128 -115 8 -22 100 -143 109 -144 4 0 31 18
60 39 129 97 419 254 646 351 277 118 428 161 722 206 l36 5 -14 91 c-7 51
-16 94 -18 97 -3 3 -78 -6 -168 -18 l-162 -23 -70 20 c-112 33 -201 45 -304
40 l-96 -5 -113 273 c-101 240 -113 274 -102 294 18 33 8 125 -17 158 -38 51
-107 76 -170 62z"/>
<path d="M1665 3611 c-112 -43 -271 -113 -357 -157 l-56 -29 342 -825 c259
-624 347 -825 359 -824 9 1 44 17 79 37 59 33 73 48 206 230 l142 195 -293
706 c-206 498 -296 706 -307 706 -8 -1 -60 -18 -115 -39z"/>
<path d="M3140 2525 c-135 -7 -268 -13 -296 -14 l-50 -1 -288 -395 c-159 -217
-294 -399 -300 -404 -6 -5 -151 -83 -322 -175 -171 -91 -319 -172 -329 -180
-13 -9 -53 -159 -160 -597 l-142 -584 863 -3 c474 -1 1254 -1 1732 0 l869 3
-75 321 -75 321 -828 273 -827 273 24 71 c13 39 26 76 28 82 3 8 162 -40 453
-136 246 -81 449 -146 451 -145 1 1 -84 295 -190 653 l-193 652 -50 -2 c-27 0
-160 -7 -295 -13z"/>
</g>
</svg>
